<svg width="299" height="65" viewBox="0 0 299 65" fill="none" xmlns="http://www.w3.org/2000/svg">
<rect x="1" y="1" width="297" height="63" stroke="#1E1B93" stroke-width="2"/>
<g clip-path="url(#clip0_6_64)">
<path d="M61.8375 40.473H59.9108V20.7066C59.9108 18.7108 58.287 17.0867 56.2909 17.0867L29.4552 17.087C27.4643 17.087 25.8442 18.7109 25.8442 20.7069V40.4724H23.9127C23.6283 40.4724 23.3644 40.618 23.2139 40.8589C23.0635 41.0997 23.0473 41.4006 23.1711 41.6566C24.7846 44.985 28.2241 47.1353 31.9334 47.1353H53.8171C57.5253 47.1353 60.9648 44.9849 62.5783 41.6566C62.7022 41.4006 62.6863 41.0994 62.5355 40.8589C62.3854 40.618 62.1211 40.4724 61.8371 40.4724C61.5532 40.4724 61.8375 40.473 61.8375 40.473Z" fill="url(#paint0_linear_6_64)"/>
<line x1="51.3275" y1="38.9706" x2="53.9323" y2="41.2498" stroke="white" stroke-width="1.73971" stroke-linecap="round"/>
<path d="M47.5835 32.2585C47.1637 32.2585 46.7655 32.3341 46.38 32.4414C45.5827 31.6349 43.9386 31.32 42.368 31.32C40.7975 31.32 39.1533 31.6349 38.3561 32.4414C37.9706 32.3345 37.5724 32.2585 37.1525 32.2585C34.6984 32.2585 32.702 34.2161 32.702 36.6215C32.702 39.028 34.6984 40.9855 37.1525 40.9855C39.6055 40.9855 41.6019 39.028 41.6019 36.6215C41.6019 35.3869 41.0711 34.276 40.2275 33.4814C40.6725 33.331 41.3938 33.1915 42.3681 33.1915C43.3424 33.1915 44.0638 33.331 44.5088 33.4814C43.6652 34.2761 43.1343 35.3869 43.1343 36.6215C43.1343 39.028 45.1307 40.9855 47.5838 40.9855C50.0368 40.9855 52.0332 39.028 52.0332 36.6215C52.0336 34.2162 50.0371 32.2585 47.5838 32.2585H47.5835ZM37.1523 39.1137C35.7507 39.1137 34.6107 37.9959 34.6107 36.6215C34.6107 35.2478 35.7507 34.1299 37.1523 34.1299C38.5531 34.1299 39.6932 35.2477 39.6932 36.6215C39.6928 37.9963 38.5532 39.1137 37.1523 39.1137ZM47.5835 39.1137C46.1827 39.1137 45.0427 37.9959 45.0427 36.6215C45.0427 35.2478 46.1826 34.1299 47.5835 34.1299C48.9845 34.1299 50.1244 35.2477 50.1244 36.6215C50.1244 37.9963 48.9845 39.1137 47.5835 39.1137Z" fill="white"/>
<path d="M52.2437 27.8706H49.5956L47.4606 22.4295C47.0012 21.2542 45.8876 20.4945 44.6237 20.4945H40.1107C38.8475 20.4945 37.7339 21.2534 37.2737 22.4288L35.1387 27.8711H32.4923C31.9669 27.8711 31.5421 28.2967 31.5421 28.8223C31.5421 29.3482 31.9673 29.7735 32.4923 29.7735H52.2429C52.7683 29.7735 53.193 29.3478 53.193 28.8223C53.1934 28.2963 52.7687 27.8707 52.2433 27.8707L52.2437 27.8706ZM39.042 23.1235C39.2154 22.6823 39.6342 22.3969 40.1103 22.3969H44.6232C45.0993 22.3969 45.5177 22.6819 45.6903 23.1235L47.5528 27.8691H37.1807L39.042 23.1235Z" fill="white"/>
</g>
<path d="M86.4155 38.4426V42H74.1238V23.6024H78.2653V38.4426H86.4155ZM92.773 42H88.8174V28.0359H92.773V42ZM93.1447 24.0006C93.1447 24.7262 92.9058 25.3014 92.4279 25.7262C91.9678 26.1333 91.4191 26.3368 90.7819 26.3368C90.1448 26.3368 89.5873 26.1333 89.1094 25.7262C88.6493 25.3014 88.4192 24.7262 88.4192 24.0006C88.4192 23.2749 88.6493 22.7086 89.1094 22.3015C89.5873 21.8768 90.1448 21.6644 90.7819 21.6644C91.4191 21.6644 91.9678 21.8768 92.4279 22.3015C92.9058 22.7086 93.1447 23.2749 93.1447 24.0006ZM95.8277 35.0179C95.8277 34.0091 95.987 33.0622 96.3055 32.1773C96.6418 31.2747 97.1197 30.496 97.7391 29.8411C98.3586 29.1686 99.1108 28.6376 99.9957 28.2482C100.881 27.8589 101.889 27.6642 103.022 27.6642C103.765 27.6642 104.447 27.735 105.066 27.8766C105.686 28.0005 106.288 28.1863 106.872 28.4341L106.049 31.5933C105.677 31.4517 105.27 31.3278 104.827 31.2216C104.385 31.1154 103.889 31.0623 103.341 31.0623C102.173 31.0623 101.297 31.4251 100.712 32.1508C100.146 32.8764 99.863 33.8321 99.863 35.0179C99.863 36.2745 100.128 37.2479 100.659 37.9382C101.208 38.6284 102.155 38.9736 103.5 38.9736C103.978 38.9736 104.491 38.9293 105.04 38.8408C105.588 38.7523 106.093 38.6107 106.553 38.416L107.111 41.6549C106.65 41.8496 106.075 42.0177 105.385 42.1593C104.695 42.3009 103.934 42.3717 103.102 42.3717C101.827 42.3717 100.73 42.1858 99.8099 41.8142C98.8895 41.4248 98.1285 40.9027 97.5267 40.2478C96.9427 39.593 96.5091 38.8231 96.2259 37.9382C95.9604 37.0356 95.8277 36.0621 95.8277 35.0179ZM108.428 35.1241C108.428 33.8852 108.613 32.8056 108.985 31.8853C109.374 30.9473 109.879 30.1685 110.498 29.5491C111.118 28.9296 111.826 28.4606 112.622 28.142C113.436 27.8235 114.268 27.6642 115.118 27.6642C117.1 27.6642 118.666 28.2748 119.817 29.496C120.967 30.6995 121.542 32.4782 121.542 34.8321C121.542 35.0622 121.533 35.3188 121.516 35.602C121.498 35.8675 121.48 36.1064 121.462 36.3188H112.489C112.578 37.1329 112.958 37.7789 113.631 38.2568C114.303 38.7346 115.206 38.9736 116.339 38.9736C117.064 38.9736 117.772 38.9116 118.463 38.7877C119.171 38.6461 119.746 38.478 120.188 38.2833L120.719 41.4956C120.507 41.6018 120.224 41.708 119.87 41.8142C119.516 41.9204 119.117 42.0088 118.675 42.0796C118.25 42.1681 117.79 42.2389 117.294 42.292C116.799 42.3451 116.303 42.3717 115.808 42.3717C114.551 42.3717 113.454 42.1858 112.516 41.8142C111.596 41.4425 110.826 40.9381 110.206 40.3009C109.604 39.6461 109.153 38.8762 108.852 37.9913C108.569 37.1064 108.428 36.1506 108.428 35.1241ZM117.719 33.6109C117.702 33.2746 117.64 32.9472 117.533 32.6286C117.445 32.3101 117.294 32.0269 117.082 31.7791C116.887 31.5313 116.631 31.3278 116.312 31.1685C116.011 31.0092 115.631 30.9296 115.171 30.9296C114.728 30.9296 114.348 31.0092 114.029 31.1685C113.711 31.3101 113.445 31.5048 113.233 31.7525C113.02 32.0003 112.852 32.2924 112.728 32.6286C112.622 32.9472 112.542 33.2746 112.489 33.6109H117.719ZM124.595 28.5137C125.267 28.319 126.134 28.142 127.196 27.9828C128.258 27.8058 129.373 27.7173 130.541 27.7173C131.727 27.7173 132.709 27.8766 133.488 28.1951C134.285 28.496 134.913 28.9296 135.373 29.496C135.833 30.0623 136.161 30.7349 136.355 31.5136C136.55 32.2924 136.647 33.1596 136.647 34.1153V42H132.692V34.5932C132.692 33.3189 132.524 32.4162 132.187 31.8853C131.851 31.3543 131.223 31.0889 130.302 31.0889C130.019 31.0889 129.718 31.1066 129.4 31.1419C129.081 31.1596 128.798 31.1862 128.55 31.2216V42H124.595V28.5137ZM144.237 39.1594C144.962 39.1594 145.475 39.0886 145.776 38.947C146.077 38.8054 146.228 38.5311 146.228 38.124C146.228 37.8054 146.033 37.5311 145.644 37.301C145.254 37.0533 144.661 36.7789 143.865 36.4781C143.245 36.248 142.679 36.009 142.166 35.7613C141.67 35.5135 141.246 35.2215 140.892 34.8852C140.538 34.5312 140.263 34.1153 140.069 33.6374C139.874 33.1596 139.777 32.5844 139.777 31.9118C139.777 30.6021 140.263 29.5668 141.237 28.8057C142.21 28.0447 143.546 27.6642 145.245 27.6642C146.095 27.6642 146.909 27.7438 147.688 27.9031C148.467 28.0447 149.086 28.204 149.546 28.381L148.856 31.4605C148.396 31.3012 147.891 31.1596 147.343 31.0358C146.812 30.9119 146.21 30.8499 145.537 30.8499C144.299 30.8499 143.679 31.195 143.679 31.8853C143.679 32.0446 143.706 32.1862 143.759 32.3101C143.812 32.4339 143.918 32.5578 144.077 32.6817C144.237 32.7879 144.449 32.9118 144.714 33.0534C144.998 33.1773 145.352 33.3189 145.776 33.4782C146.644 33.7967 147.36 34.1153 147.927 34.4339C148.493 34.7348 148.936 35.071 149.254 35.4427C149.59 35.7967 149.82 36.1949 149.944 36.6373C150.086 37.0798 150.157 37.5931 150.157 38.1771C150.157 39.5576 149.635 40.6018 148.59 41.3098C147.564 42.0177 146.104 42.3717 144.21 42.3717C142.971 42.3717 141.936 42.2655 141.104 42.0531C140.29 41.8407 139.723 41.6637 139.405 41.5221L140.069 38.3099C140.741 38.5753 141.431 38.7877 142.139 38.947C142.847 39.0886 143.546 39.1594 144.237 39.1594ZM152.449 35.1241C152.449 33.8852 152.635 32.8056 153.007 31.8853C153.396 30.9473 153.9 30.1685 154.52 29.5491C155.139 28.9296 155.847 28.4606 156.644 28.142C157.458 27.8235 158.29 27.6642 159.139 27.6642C161.121 27.6642 162.688 28.2748 163.838 29.496C164.989 30.6995 165.564 32.4782 165.564 34.8321C165.564 35.0622 165.555 35.3188 165.537 35.602C165.52 35.8675 165.502 36.1064 165.484 36.3188H156.511C156.599 37.1329 156.98 37.7789 157.653 38.2568C158.325 38.7346 159.228 38.9736 160.36 38.9736C161.086 38.9736 161.794 38.9116 162.484 38.7877C163.192 38.6461 163.767 38.478 164.21 38.2833L164.741 41.4956C164.528 41.6018 164.245 41.708 163.891 41.8142C163.537 41.9204 163.139 42.0088 162.697 42.0796C162.272 42.1681 161.812 42.2389 161.316 42.292C160.821 42.3451 160.325 42.3717 159.829 42.3717C158.573 42.3717 157.476 42.1858 156.538 41.8142C155.617 41.4425 154.847 40.9381 154.228 40.3009C153.626 39.6461 153.175 38.8762 152.874 37.9913C152.591 37.1064 152.449 36.1506 152.449 35.1241ZM161.741 33.6109C161.723 33.2746 161.661 32.9472 161.555 32.6286C161.467 32.3101 161.316 32.0269 161.104 31.7791C160.909 31.5313 160.652 31.3278 160.334 31.1685C160.033 31.0092 159.652 30.9296 159.192 30.9296C158.75 30.9296 158.369 31.0092 158.051 31.1685C157.732 31.3101 157.467 31.5048 157.254 31.7525C157.042 32.0003 156.874 32.2924 156.75 32.6286C156.644 32.9472 156.564 33.2746 156.511 33.6109H161.741ZM183.649 42.3717C180.658 42.3717 178.374 41.5398 176.799 39.8762C175.242 38.2125 174.463 35.8498 174.463 32.7879C174.463 31.2658 174.702 29.9119 175.18 28.7261C175.658 27.5226 176.313 26.5138 177.144 25.6996C177.976 24.8678 178.967 24.2395 180.118 23.8148C181.268 23.39 182.516 23.1776 183.861 23.1776C184.64 23.1776 185.348 23.2396 185.985 23.3634C186.622 23.4696 187.18 23.6024 187.657 23.7617C188.135 23.9032 188.533 24.0537 188.852 24.213C189.171 24.3723 189.401 24.4961 189.542 24.5846L188.348 27.9297C187.781 27.6288 187.118 27.3722 186.357 27.1598C185.613 26.9474 184.764 26.8412 183.808 26.8412C183.171 26.8412 182.542 26.9474 181.923 27.1598C181.321 27.3722 180.781 27.7173 180.304 28.1951C179.843 28.6553 179.472 29.2571 179.189 30.0004C178.905 30.7437 178.764 31.6464 178.764 32.7083C178.764 33.5578 178.852 34.3542 179.029 35.0976C179.224 35.8232 179.525 36.4515 179.932 36.9825C180.357 37.5134 180.905 37.9382 181.578 38.2568C182.25 38.5576 183.065 38.7081 184.02 38.7081C184.622 38.7081 185.162 38.6727 185.64 38.6019C186.118 38.5311 186.542 38.4514 186.914 38.363C187.286 38.2568 187.613 38.1417 187.896 38.0178C188.179 37.8939 188.436 37.7789 188.666 37.6727L189.808 40.9912C189.224 41.3452 188.401 41.6637 187.339 41.9469C186.277 42.2301 185.047 42.3717 183.649 42.3717ZM192.209 42V22.0361L196.164 21.3989V28.089C196.43 28.0005 196.766 27.9208 197.173 27.85C197.598 27.7615 198.005 27.7173 198.394 27.7173C199.527 27.7173 200.465 27.8766 201.208 28.1951C201.969 28.496 202.571 28.9296 203.014 29.496C203.474 30.0623 203.792 30.7349 203.969 31.5136C204.164 32.2924 204.261 33.1596 204.261 34.1153V42H200.306V34.5932C200.306 33.3189 200.138 32.4162 199.801 31.8853C199.483 31.3543 198.881 31.0889 197.996 31.0889C197.642 31.0889 197.306 31.1243 196.987 31.195C196.686 31.2481 196.412 31.3101 196.164 31.3809V42H192.209ZM207.178 35.1241C207.178 33.8852 207.364 32.8056 207.736 31.8853C208.125 30.9473 208.629 30.1685 209.249 29.5491C209.868 28.9296 210.576 28.4606 211.373 28.142C212.187 27.8235 213.019 27.6642 213.868 27.6642C215.85 27.6642 217.417 28.2748 218.567 29.496C219.718 30.6995 220.293 32.4782 220.293 34.8321C220.293 35.0622 220.284 35.3188 220.266 35.602C220.248 35.8675 220.231 36.1064 220.213 36.3188H211.24C211.328 37.1329 211.709 37.7789 212.381 38.2568C213.054 38.7346 213.957 38.9736 215.089 38.9736C215.815 38.9736 216.523 38.9116 217.213 38.7877C217.921 38.6461 218.496 38.478 218.939 38.2833L219.47 41.4956C219.257 41.6018 218.974 41.708 218.62 41.8142C218.266 41.9204 217.868 42.0088 217.426 42.0796C217.001 42.1681 216.541 42.2389 216.045 42.292C215.55 42.3451 215.054 42.3717 214.558 42.3717C213.302 42.3717 212.204 42.1858 211.266 41.8142C210.346 41.4425 209.576 40.9381 208.957 40.3009C208.355 39.6461 207.904 38.8762 207.603 37.9913C207.32 37.1064 207.178 36.1506 207.178 35.1241ZM216.47 33.6109C216.452 33.2746 216.39 32.9472 216.284 32.6286C216.195 32.3101 216.045 32.0269 215.833 31.7791C215.638 31.5313 215.381 31.3278 215.063 31.1685C214.762 31.0092 214.381 30.9296 213.921 30.9296C213.479 30.9296 213.098 31.0092 212.78 31.1685C212.461 31.3101 212.196 31.5048 211.983 31.7525C211.771 32.0003 211.603 32.2924 211.479 32.6286C211.373 32.9472 211.293 33.2746 211.24 33.6109H216.47ZM222.682 35.0179C222.682 34.0091 222.841 33.0622 223.159 32.1773C223.496 31.2747 223.974 30.496 224.593 29.8411C225.212 29.1686 225.965 28.6376 226.85 28.2482C227.735 27.8589 228.743 27.6642 229.876 27.6642C230.619 27.6642 231.301 27.735 231.92 27.8766C232.54 28.0005 233.141 28.1863 233.725 28.4341L232.902 31.5933C232.531 31.4517 232.124 31.3278 231.681 31.2216C231.239 31.1154 230.743 31.0623 230.195 31.0623C229.027 31.0623 228.15 31.4251 227.566 32.1508C227 32.8764 226.717 33.8321 226.717 35.0179C226.717 36.2745 226.982 37.2479 227.513 37.9382C228.062 38.6284 229.009 38.9736 230.354 38.9736C230.832 38.9736 231.345 38.9293 231.894 38.8408C232.442 38.7523 232.947 38.6107 233.407 38.416L233.964 41.6549C233.504 41.8496 232.929 42.0177 232.239 42.1593C231.549 42.3009 230.788 42.3717 229.956 42.3717C228.681 42.3717 227.584 42.1858 226.664 41.8142C225.743 41.4248 224.982 40.9027 224.381 40.2478C223.797 39.593 223.363 38.8231 223.08 37.9382C222.814 37.0356 222.682 36.0621 222.682 35.0179ZM240.575 33.0799C240.964 32.6552 241.362 32.2127 241.769 31.7525C242.194 31.2924 242.601 30.8411 242.991 30.3986C243.38 29.9384 243.743 29.5048 244.079 29.0978C244.433 28.6907 244.734 28.3367 244.982 28.0359H249.681C248.743 29.1155 247.822 30.1508 246.92 31.1419C246.035 32.1154 245.061 33.1242 243.999 34.1684C244.53 34.6463 245.079 35.2215 245.645 35.894C246.212 36.5489 246.76 37.2302 247.291 37.9382C247.822 38.6461 248.309 39.3541 248.752 40.062C249.194 40.77 249.566 41.4159 249.867 42H245.327C245.044 41.5398 244.716 41.0354 244.345 40.4868C243.991 39.9204 243.61 39.3629 243.203 38.8143C242.796 38.2479 242.362 37.7081 241.902 37.1948C241.46 36.6816 241.017 36.248 240.575 35.894V42H236.619V22.0361L240.575 21.3989V33.0799ZM250.37 35.1241C250.37 33.8852 250.556 32.8056 250.928 31.8853C251.317 30.9473 251.821 30.1685 252.441 29.5491C253.06 28.9296 253.768 28.4606 254.565 28.142C255.379 27.8235 256.211 27.6642 257.06 27.6642C259.042 27.6642 260.609 28.2748 261.759 29.496C262.91 30.6995 263.485 32.4782 263.485 34.8321C263.485 35.0622 263.476 35.3188 263.458 35.602C263.44 35.8675 263.423 36.1064 263.405 36.3188H254.432C254.52 37.1329 254.901 37.7789 255.573 38.2568C256.246 38.7346 257.149 38.9736 258.281 38.9736C259.007 38.9736 259.715 38.9116 260.405 38.7877C261.113 38.6461 261.688 38.478 262.131 38.2833L262.662 41.4956C262.449 41.6018 262.166 41.708 261.812 41.8142C261.458 41.9204 261.06 42.0088 260.618 42.0796C260.193 42.1681 259.733 42.2389 259.237 42.292C258.742 42.3451 258.246 42.3717 257.75 42.3717C256.494 42.3717 255.396 42.1858 254.458 41.8142C253.538 41.4425 252.768 40.9381 252.149 40.3009C251.547 39.6461 251.096 38.8762 250.795 37.9913C250.512 37.1064 250.37 36.1506 250.37 35.1241ZM259.662 33.6109C259.644 33.2746 259.582 32.9472 259.476 32.6286C259.388 32.3101 259.237 32.0269 259.025 31.7791C258.83 31.5313 258.573 31.3278 258.255 31.1685C257.954 31.0092 257.573 30.9296 257.113 30.9296C256.671 30.9296 256.29 31.0092 255.972 31.1685C255.653 31.3101 255.388 31.5048 255.175 31.7525C254.963 32.0003 254.795 32.2924 254.671 32.6286C254.565 32.9472 254.485 33.2746 254.432 33.6109H259.662ZM274.953 31.5402C274.599 31.4517 274.183 31.3632 273.705 31.2747C273.227 31.1685 272.714 31.1154 272.165 31.1154C271.918 31.1154 271.617 31.1419 271.263 31.195C270.927 31.2304 270.67 31.2747 270.493 31.3278V42H266.537V28.7792C267.245 28.5314 268.077 28.3013 269.033 28.089C270.006 27.8589 271.086 27.7438 272.272 27.7438C272.484 27.7438 272.741 27.7615 273.042 27.7969C273.342 27.8146 273.643 27.85 273.944 27.9031C274.245 27.9385 274.546 27.9916 274.847 28.0624C275.148 28.1155 275.404 28.1863 275.617 28.2748L274.953 31.5402Z" fill="url(#paint1_linear_6_64)"/>
<defs>
<linearGradient id="paint0_linear_6_64" x1="26.4945" y1="18.1648" x2="62.6044" y2="47.2857" gradientUnits="userSpaceOnUse">
<stop stop-color="#0040E3"/>
<stop offset="0.651042" stop-color="#620CC4"/>
<stop offset="1" stop-color="#6C00C0"/>
</linearGradient>
<linearGradient id="paint1_linear_6_64" x1="72" y1="33" x2="276" y2="37" gradientUnits="userSpaceOnUse">
<stop stop-color="#5B0EB5"/>
<stop offset="1" stop-color="#1E1B93"/>
</linearGradient>
<clipPath id="clip0_6_64">
<rect width="39.75" height="30.2857" fill="white" transform="translate(23 17)"/>
</clipPath>
</defs>
</svg>
