<svg width="253" height="31" viewBox="0 0 253 31" fill="none" xmlns="http://www.w3.org/2000/svg">
<g clip-path="url(#clip0_6_43)">
<path d="M38.8375 23.473H36.9108V3.7066C36.9108 1.7108 35.287 0.0867004 33.2909 0.0867004L6.45522 0.0870448C4.46428 0.0870448 2.84424 1.71088 2.84424 3.70695V23.4724H0.912657C0.62833 23.4724 0.364372 23.618 0.213923 23.8589C0.0634733 24.0997 0.0472645 24.4006 0.171136 24.6566C1.78463 27.985 5.22407 30.1353 8.93336 30.1353H30.8171C34.5253 30.1353 37.9648 27.9849 39.5783 24.6566C39.7022 24.4006 39.6863 24.0994 39.5355 23.8589C39.3854 23.618 39.1211 23.4724 38.8371 23.4724C38.5532 23.4724 38.8375 23.473 38.8375 23.473Z" fill="url(#paint0_linear_6_43)"/>
<line x1="28.3275" y1="21.9706" x2="30.9323" y2="24.2498" stroke="white" stroke-width="1.73971" stroke-linecap="round"/>
<path d="M24.5835 15.2585C24.1637 15.2585 23.7655 15.3341 23.38 15.4414C22.5827 14.6349 20.9386 14.32 19.368 14.32C17.7975 14.32 16.1533 14.6349 15.3561 15.4414C14.9706 15.3345 14.5724 15.2585 14.1525 15.2585C11.6984 15.2585 9.702 17.2161 9.702 19.6215C9.702 22.028 11.6984 23.9855 14.1525 23.9855C16.6055 23.9855 18.6019 22.028 18.6019 19.6215C18.6019 18.3869 18.0711 17.276 17.2275 16.4814C17.6725 16.331 18.3938 16.1915 19.3681 16.1915C20.3424 16.1915 21.0638 16.331 21.5088 16.4814C20.6652 17.2761 20.1343 18.3869 20.1343 19.6215C20.1343 22.028 22.1307 23.9855 24.5838 23.9855C27.0368 23.9855 29.0332 22.028 29.0332 19.6215C29.0336 17.2162 27.0371 15.2585 24.5838 15.2585H24.5835ZM14.1523 22.1137C12.7507 22.1137 11.6107 20.9959 11.6107 19.6215C11.6107 18.2478 12.7507 17.1299 14.1523 17.1299C15.5531 17.1299 16.6932 18.2477 16.6932 19.6215C16.6928 20.9963 15.5532 22.1137 14.1523 22.1137ZM24.5835 22.1137C23.1827 22.1137 22.0427 20.9959 22.0427 19.6215C22.0427 18.2478 23.1826 17.1299 24.5835 17.1299C25.9845 17.1299 27.1244 18.2477 27.1244 19.6215C27.1244 20.9963 25.9845 22.1137 24.5835 22.1137Z" fill="white"/>
<path d="M29.2437 10.8706H26.5956L24.4606 5.42947C24.0012 4.25416 22.8876 3.49451 21.6237 3.49451H17.1107C15.8475 3.49451 14.7339 4.25338 14.2737 5.42876L12.1387 10.8711H9.49229C8.96689 10.8711 8.54213 11.2967 8.54213 11.8223C8.54213 12.3482 8.9673 12.7735 9.49229 12.7735H29.2429C29.7683 12.7735 30.193 12.3478 30.193 11.8223C30.1934 11.2963 29.7687 10.8707 29.2433 10.8707L29.2437 10.8706ZM16.042 6.12349C16.2154 5.68234 16.6342 5.39687 17.1103 5.39687H21.6232C22.0993 5.39687 22.5177 5.68194 22.6903 6.12349L24.5528 10.8691H14.1807L16.042 6.12349Z" fill="white"/>
</g>
<path d="M63.4155 21.4426V25H51.1238V6.60237H55.2653V21.4426H63.4155ZM69.773 25H65.8174V11.0359H69.773V25ZM70.1447 7.00059C70.1447 7.72623 69.9058 8.30143 69.4279 8.7262C68.9678 9.13326 68.4191 9.3368 67.7819 9.3368C67.1448 9.3368 66.5873 9.13326 66.1094 8.7262C65.6493 8.30143 65.4192 7.72623 65.4192 7.00059C65.4192 6.27495 65.6493 5.7086 66.1094 5.30153C66.5873 4.87677 67.1448 4.66438 67.7819 4.66438C68.4191 4.66438 68.9678 4.87677 69.4279 5.30153C69.9058 5.7086 70.1447 6.27495 70.1447 7.00059ZM72.8277 18.0179C72.8277 17.0091 72.987 16.0622 73.3055 15.1773C73.6418 14.2747 74.1197 13.496 74.7391 12.8411C75.3586 12.1686 76.1108 11.6376 76.9957 11.2482C77.8806 10.8589 78.8894 10.6642 80.0221 10.6642C80.7655 10.6642 81.4469 10.735 82.0663 10.8766C82.6858 11.0005 83.2875 11.1863 83.8716 11.4341L83.0486 14.5933C82.6769 14.4517 82.2699 14.3278 81.8274 14.2216C81.3849 14.1154 80.8894 14.0623 80.3407 14.0623C79.1726 14.0623 78.2965 14.4251 77.7125 15.1508C77.1461 15.8764 76.863 16.8321 76.863 18.0179C76.863 19.2745 77.1284 20.2479 77.6594 20.9382C78.208 21.6284 79.1549 21.9736 80.5 21.9736C80.9779 21.9736 81.4911 21.9293 82.0398 21.8408C82.5884 21.7523 83.0928 21.6107 83.553 21.416L84.1105 24.6549C83.6503 24.8496 83.0751 25.0177 82.3849 25.1593C81.6947 25.3009 80.9336 25.3717 80.1018 25.3717C78.8275 25.3717 77.7302 25.1858 76.8099 24.8142C75.8895 24.4248 75.1285 23.9027 74.5267 23.2478C73.9427 22.593 73.5091 21.8231 73.2259 20.9382C72.9604 20.0356 72.8277 19.0621 72.8277 18.0179ZM85.4275 18.1241C85.4275 16.8852 85.6134 15.8056 85.985 14.8853C86.3744 13.9473 86.8788 13.1685 87.4983 12.5491C88.1177 11.9296 88.8256 11.4606 89.6221 11.142C90.4362 10.8235 91.268 10.6642 92.1176 10.6642C94.0998 10.6642 95.6661 11.2748 96.8165 12.496C97.9669 13.6995 98.5421 15.4782 98.5421 17.8321C98.5421 18.0622 98.5333 18.3188 98.5156 18.602C98.4979 18.8675 98.4802 19.1064 98.4625 19.3188H89.4893C89.5778 20.1329 89.9583 20.7789 90.6309 21.2568C91.3034 21.7346 92.2061 21.9736 93.3388 21.9736C94.0644 21.9736 94.7723 21.9116 95.4626 21.7877C96.1705 21.6461 96.7457 21.478 97.1882 21.2833L97.7192 24.4956C97.5068 24.6018 97.2236 24.708 96.8696 24.8142C96.5157 24.9204 96.1174 25.0088 95.675 25.0796C95.2502 25.1681 94.79 25.2389 94.2945 25.292C93.7989 25.3451 93.3034 25.3717 92.8078 25.3717C91.5512 25.3717 90.4539 25.1858 89.5159 24.8142C88.5956 24.4425 87.8257 23.9381 87.2062 23.3009C86.6045 22.6461 86.1532 21.8762 85.8523 20.9913C85.5691 20.1064 85.4275 19.1506 85.4275 18.1241ZM94.7193 16.6109C94.7016 16.2746 94.6396 15.9472 94.5334 15.6286C94.4449 15.3101 94.2945 15.0269 94.0821 14.7791C93.8874 14.5313 93.6308 14.3278 93.3122 14.1685C93.0113 14.0092 92.6308 13.9296 92.1707 13.9296C91.7282 13.9296 91.3477 14.0092 91.0291 14.1685C90.7105 14.3101 90.4451 14.5048 90.2327 14.7525C90.0203 15.0003 89.8522 15.2924 89.7283 15.6286C89.6221 15.9472 89.5424 16.2746 89.4893 16.6109H94.7193ZM101.595 11.5137C102.267 11.319 103.134 11.142 104.196 10.9828C105.258 10.8058 106.373 10.7173 107.541 10.7173C108.727 10.7173 109.709 10.8766 110.488 11.1951C111.285 11.496 111.913 11.9296 112.373 12.496C112.833 13.0623 113.161 13.7349 113.355 14.5136C113.55 15.2924 113.647 16.1596 113.647 17.1153V25H109.692V17.5932C109.692 16.3189 109.524 15.4162 109.187 14.8853C108.851 14.3543 108.223 14.0889 107.302 14.0889C107.019 14.0889 106.718 14.1066 106.4 14.1419C106.081 14.1596 105.798 14.1862 105.55 14.2216V25H101.595V11.5137ZM116.564 18.0179C116.564 17.0091 116.723 16.0622 117.042 15.1773C117.378 14.2747 117.856 13.496 118.476 12.8411C119.095 12.1686 119.847 11.6376 120.732 11.2482C121.617 10.8589 122.626 10.6642 123.759 10.6642C124.502 10.6642 125.183 10.735 125.803 10.8766C126.422 11.0005 127.024 11.1863 127.608 11.4341L126.785 14.5933C126.413 14.4517 126.006 14.3278 125.564 14.2216C125.121 14.1154 124.626 14.0623 124.077 14.0623C122.909 14.0623 122.033 14.4251 121.449 15.1508C120.883 15.8764 120.599 16.8321 120.599 18.0179C120.599 19.2745 120.865 20.2479 121.396 20.9382C121.945 21.6284 122.891 21.9736 124.236 21.9736C124.714 21.9736 125.228 21.9293 125.776 21.8408C126.325 21.7523 126.829 21.6107 127.289 21.416L127.847 24.6549C127.387 24.8496 126.812 25.0177 126.121 25.1593C125.431 25.3009 124.67 25.3717 123.838 25.3717C122.564 25.3717 121.467 25.1858 120.546 24.8142C119.626 24.4248 118.865 23.9027 118.263 23.2478C117.679 22.593 117.246 21.8231 116.962 20.9382C116.697 20.0356 116.564 19.0621 116.564 18.0179ZM129.164 18.1241C129.164 16.8852 129.35 15.8056 129.721 14.8853C130.111 13.9473 130.615 13.1685 131.235 12.5491C131.854 11.9296 132.562 11.4606 133.359 11.142C134.173 10.8235 135.005 10.6642 135.854 10.6642C137.836 10.6642 139.403 11.2748 140.553 12.496C141.703 13.6995 142.279 15.4782 142.279 17.8321C142.279 18.0622 142.27 18.3188 142.252 18.602C142.234 18.8675 142.217 19.1064 142.199 19.3188H133.226C133.314 20.1329 133.695 20.7789 134.367 21.2568C135.04 21.7346 135.943 21.9736 137.075 21.9736C137.801 21.9736 138.509 21.9116 139.199 21.7877C139.907 21.6461 140.482 21.478 140.925 21.2833L141.456 24.4956C141.243 24.6018 140.96 24.708 140.606 24.8142C140.252 24.9204 139.854 25.0088 139.411 25.0796C138.987 25.1681 138.527 25.2389 138.031 25.292C137.535 25.3451 137.04 25.3717 136.544 25.3717C135.288 25.3717 134.19 25.1858 133.252 24.8142C132.332 24.4425 131.562 23.9381 130.943 23.3009C130.341 22.6461 129.89 21.8762 129.589 20.9913C129.306 20.1064 129.164 19.1506 129.164 18.1241ZM138.456 16.6109C138.438 16.2746 138.376 15.9472 138.27 15.6286C138.181 15.3101 138.031 15.0269 137.819 14.7791C137.624 14.5313 137.367 14.3278 137.049 14.1685C136.748 14.0092 136.367 13.9296 135.907 13.9296C135.465 13.9296 135.084 14.0092 134.766 14.1685C134.447 14.3101 134.182 14.5048 133.969 14.7525C133.757 15.0003 133.589 15.2924 133.465 15.6286C133.359 15.9472 133.279 16.2746 133.226 16.6109H138.456ZM160.363 25.3717C157.372 25.3717 155.089 24.5398 153.514 22.8762C151.957 21.2125 151.178 18.8498 151.178 15.7879C151.178 14.2658 151.417 12.9119 151.895 11.7261C152.373 10.5226 153.027 9.51378 153.859 8.69965C154.691 7.86782 155.682 7.23952 156.833 6.81475C157.983 6.38999 159.231 6.17761 160.576 6.17761C161.355 6.17761 162.063 6.23955 162.7 6.36344C163.337 6.46963 163.894 6.60237 164.372 6.76166C164.85 6.90325 165.248 7.05369 165.567 7.21297C165.885 7.37226 166.115 7.49615 166.257 7.58464L165.062 10.9297C164.496 10.6288 163.832 10.3722 163.071 10.1598C162.328 9.9474 161.478 9.8412 160.523 9.8412C159.886 9.8412 159.257 9.9474 158.638 10.1598C158.036 10.3722 157.496 10.7173 157.018 11.1951C156.558 11.6553 156.187 12.2571 155.903 13.0004C155.62 13.7437 155.479 14.6464 155.479 15.7083C155.479 16.5578 155.567 17.3542 155.744 18.0976C155.939 18.8232 156.24 19.4515 156.647 19.9825C157.072 20.5134 157.62 20.9382 158.293 21.2568C158.965 21.5576 159.779 21.7081 160.735 21.7081C161.337 21.7081 161.877 21.6727 162.355 21.6019C162.832 21.5311 163.257 21.4514 163.629 21.363C164.001 21.2568 164.328 21.1417 164.611 21.0178C164.894 20.8939 165.151 20.7789 165.381 20.6727L166.523 23.9912C165.939 24.3452 165.116 24.6637 164.054 24.9469C162.992 25.2301 161.762 25.3717 160.363 25.3717ZM168.923 25V5.03605L172.879 4.39891V11.089C173.145 11.0005 173.481 10.9208 173.888 10.85C174.313 10.7615 174.72 10.7173 175.109 10.7173C176.242 10.7173 177.18 10.8766 177.923 11.1951C178.684 11.496 179.286 11.9296 179.728 12.496C180.189 13.0623 180.507 13.7349 180.684 14.5136C180.879 15.2924 180.976 16.1596 180.976 17.1153V25H177.021V17.5932C177.021 16.3189 176.852 15.4162 176.516 14.8853C176.198 14.3543 175.596 14.0889 174.711 14.0889C174.357 14.0889 174.021 14.1243 173.702 14.195C173.401 14.2481 173.127 14.3101 172.879 14.3809V25H168.923ZM183.893 18.1241C183.893 16.8852 184.079 15.8056 184.45 14.8853C184.84 13.9473 185.344 13.1685 185.964 12.5491C186.583 11.9296 187.291 11.4606 188.087 11.142C188.902 10.8235 189.733 10.6642 190.583 10.6642C192.565 10.6642 194.132 11.2748 195.282 12.496C196.432 13.6995 197.008 15.4782 197.008 17.8321C197.008 18.0622 196.999 18.3188 196.981 18.602C196.963 18.8675 196.946 19.1064 196.928 19.3188H187.955C188.043 20.1329 188.424 20.7789 189.096 21.2568C189.769 21.7346 190.671 21.9736 191.804 21.9736C192.53 21.9736 193.238 21.9116 193.928 21.7877C194.636 21.6461 195.211 21.478 195.654 21.2833L196.185 24.4956C195.972 24.6018 195.689 24.708 195.335 24.8142C194.981 24.9204 194.583 25.0088 194.14 25.0796C193.716 25.1681 193.255 25.2389 192.76 25.292C192.264 25.3451 191.769 25.3717 191.273 25.3717C190.017 25.3717 188.919 25.1858 187.981 24.8142C187.061 24.4425 186.291 23.9381 185.672 23.3009C185.07 22.6461 184.619 21.8762 184.318 20.9913C184.034 20.1064 183.893 19.1506 183.893 18.1241ZM193.185 16.6109C193.167 16.2746 193.105 15.9472 192.999 15.6286C192.91 15.3101 192.76 15.0269 192.547 14.7791C192.353 14.5313 192.096 14.3278 191.778 14.1685C191.477 14.0092 191.096 13.9296 190.636 13.9296C190.194 13.9296 189.813 14.0092 189.494 14.1685C189.176 14.3101 188.91 14.5048 188.698 14.7525C188.486 15.0003 188.318 15.2924 188.194 15.6286C188.087 15.9472 188.008 16.2746 187.955 16.6109H193.185ZM199.396 18.0179C199.396 17.0091 199.556 16.0622 199.874 15.1773C200.211 14.2747 200.688 13.496 201.308 12.8411C201.927 12.1686 202.679 11.6376 203.564 11.2482C204.449 10.8589 205.458 10.6642 206.591 10.6642C207.334 10.6642 208.016 10.735 208.635 10.8766C209.254 11.0005 209.856 11.1863 210.44 11.4341L209.617 14.5933C209.246 14.4517 208.839 14.3278 208.396 14.2216C207.954 14.1154 207.458 14.0623 206.909 14.0623C205.741 14.0623 204.865 14.4251 204.281 15.1508C203.715 15.8764 203.432 16.8321 203.432 18.0179C203.432 19.2745 203.697 20.2479 204.228 20.9382C204.777 21.6284 205.724 21.9736 207.069 21.9736C207.547 21.9736 208.06 21.9293 208.608 21.8408C209.157 21.7523 209.662 21.6107 210.122 21.416L210.679 24.6549C210.219 24.8496 209.644 25.0177 208.954 25.1593C208.263 25.3009 207.502 25.3717 206.671 25.3717C205.396 25.3717 204.299 25.1858 203.379 24.8142C202.458 24.4248 201.697 23.9027 201.095 23.2478C200.511 22.593 200.078 21.8231 199.795 20.9382C199.529 20.0356 199.396 19.0621 199.396 18.0179ZM217.29 16.0799C217.679 15.6552 218.077 15.2127 218.484 14.7525C218.909 14.2924 219.316 13.8411 219.705 13.3986C220.095 12.9384 220.458 12.5048 220.794 12.0978C221.148 11.6907 221.449 11.3367 221.697 11.0359H226.396C225.458 12.1155 224.537 13.1508 223.635 14.1419C222.75 15.1154 221.776 16.1242 220.714 17.1684C221.245 17.6463 221.794 18.2215 222.36 18.894C222.927 19.5489 223.475 20.2302 224.006 20.9382C224.537 21.6461 225.024 22.3541 225.466 23.062C225.909 23.77 226.28 24.4159 226.581 25H222.042C221.759 24.5398 221.431 24.0354 221.059 23.4868C220.705 22.9204 220.325 22.3629 219.918 21.8143C219.511 21.2479 219.077 20.7081 218.617 20.1948C218.175 19.6816 217.732 19.248 217.29 18.894V25H213.334V5.03605L217.29 4.39891V16.0799ZM227.085 18.1241C227.085 16.8852 227.271 15.8056 227.642 14.8853C228.032 13.9473 228.536 13.1685 229.156 12.5491C229.775 11.9296 230.483 11.4606 231.279 11.142C232.094 10.8235 232.925 10.6642 233.775 10.6642C235.757 10.6642 237.324 11.2748 238.474 12.496C239.624 13.6995 240.2 15.4782 240.2 17.8321C240.2 18.0622 240.191 18.3188 240.173 18.602C240.155 18.8675 240.138 19.1064 240.12 19.3188H231.147C231.235 20.1329 231.616 20.7789 232.288 21.2568C232.961 21.7346 233.863 21.9736 234.996 21.9736C235.722 21.9736 236.43 21.9116 237.12 21.7877C237.828 21.6461 238.403 21.478 238.846 21.2833L239.377 24.4956C239.164 24.6018 238.881 24.708 238.527 24.8142C238.173 24.9204 237.775 25.0088 237.332 25.0796C236.908 25.1681 236.447 25.2389 235.952 25.292C235.456 25.3451 234.961 25.3717 234.465 25.3717C233.209 25.3717 232.111 25.1858 231.173 24.8142C230.253 24.4425 229.483 23.9381 228.864 23.3009C228.262 22.6461 227.811 21.8762 227.51 20.9913C227.227 20.1064 227.085 19.1506 227.085 18.1241ZM236.377 16.6109C236.359 16.2746 236.297 15.9472 236.191 15.6286C236.102 15.3101 235.952 15.0269 235.74 14.7791C235.545 14.5313 235.288 14.3278 234.97 14.1685C234.669 14.0092 234.288 13.9296 233.828 13.9296C233.386 13.9296 233.005 14.0092 232.687 14.1685C232.368 14.3101 232.102 14.5048 231.89 14.7525C231.678 15.0003 231.51 15.2924 231.386 15.6286C231.279 15.9472 231.2 16.2746 231.147 16.6109H236.377ZM251.668 14.5402C251.314 14.4517 250.898 14.3632 250.42 14.2747C249.942 14.1685 249.429 14.1154 248.88 14.1154C248.632 14.1154 248.332 14.1419 247.978 14.195C247.641 14.2304 247.385 14.2747 247.208 14.3278V25H243.252V11.7792C243.96 11.5314 244.792 11.3013 245.748 11.089C246.721 10.8589 247.801 10.7438 248.986 10.7438C249.199 10.7438 249.455 10.7615 249.756 10.7969C250.057 10.8146 250.358 10.85 250.659 10.9031C250.96 10.9385 251.261 10.9916 251.562 11.0624C251.862 11.1155 252.119 11.1863 252.331 11.2748L251.668 14.5402Z" fill="url(#paint1_linear_6_43)"/>
<defs>
<linearGradient id="paint0_linear_6_43" x1="3.4945" y1="1.16484" x2="39.6044" y2="30.2857" gradientUnits="userSpaceOnUse">
<stop stop-color="#0040E3"/>
<stop offset="0.651042" stop-color="#620CC4"/>
<stop offset="1" stop-color="#6C00C0"/>
</linearGradient>
<linearGradient id="paint1_linear_6_43" x1="49" y1="16" x2="253" y2="20" gradientUnits="userSpaceOnUse">
<stop stop-color="#5B0EB5"/>
<stop offset="1" stop-color="#1E1B93"/>
</linearGradient>
<clipPath id="clip0_6_43">
<rect width="39.75" height="30.2857" fill="white"/>
</clipPath>
</defs>
</svg>
