<svg width="253" height="31" viewBox="0 0 253 31" fill="none" xmlns="http://www.w3.org/2000/svg">
<g clip-path="url(#clip0_6_45)">
<path d="M38.8375 23.473H36.9108V3.7066C36.9108 1.7108 35.287 0.0867004 33.2909 0.0867004L6.45522 0.0870448C4.46428 0.0870448 2.84424 1.71088 2.84424 3.70695V23.4724H0.912657C0.62833 23.4724 0.364372 23.618 0.213923 23.8589C0.0634733 24.0997 0.0472645 24.4006 0.171136 24.6566C1.78463 27.985 5.22407 30.1353 8.93336 30.1353H30.8171C34.5253 30.1353 37.9648 27.9849 39.5783 24.6566C39.7022 24.4006 39.6863 24.0994 39.5355 23.8589C39.3854 23.618 39.1211 23.4724 38.8371 23.4724C38.5532 23.4724 38.8375 23.473 38.8375 23.473Z" fill="url(#paint0_linear_6_45)"/>
<line x1="28.3275" y1="21.9706" x2="30.9323" y2="24.2498" stroke="white" stroke-width="1.73971" stroke-linecap="round"/>
<path d="M24.5835 15.2585C24.1637 15.2585 23.7655 15.3341 23.38 15.4414C22.5827 14.6349 20.9386 14.32 19.368 14.32C17.7975 14.32 16.1533 14.6349 15.3561 15.4414C14.9706 15.3345 14.5724 15.2585 14.1525 15.2585C11.6984 15.2585 9.702 17.2161 9.702 19.6215C9.702 22.028 11.6984 23.9855 14.1525 23.9855C16.6055 23.9855 18.6019 22.028 18.6019 19.6215C18.6019 18.3869 18.0711 17.276 17.2275 16.4814C17.6725 16.331 18.3938 16.1915 19.3681 16.1915C20.3424 16.1915 21.0638 16.331 21.5088 16.4814C20.6652 17.2761 20.1343 18.3869 20.1343 19.6215C20.1343 22.028 22.1307 23.9855 24.5838 23.9855C27.0368 23.9855 29.0332 22.028 29.0332 19.6215C29.0336 17.2162 27.0371 15.2585 24.5838 15.2585H24.5835ZM14.1523 22.1137C12.7507 22.1137 11.6107 20.9959 11.6107 19.6215C11.6107 18.2478 12.7507 17.1299 14.1523 17.1299C15.5531 17.1299 16.6932 18.2477 16.6932 19.6215C16.6928 20.9963 15.5532 22.1137 14.1523 22.1137ZM24.5835 22.1137C23.1827 22.1137 22.0427 20.9959 22.0427 19.6215C22.0427 18.2478 23.1826 17.1299 24.5835 17.1299C25.9845 17.1299 27.1244 18.2477 27.1244 19.6215C27.1244 20.9963 25.9845 22.1137 24.5835 22.1137Z" fill="white"/>
<path d="M29.2437 10.8706H26.5956L24.4606 5.42947C24.0012 4.25416 22.8876 3.49451 21.6237 3.49451H17.1107C15.8475 3.49451 14.7339 4.25338 14.2737 5.42876L12.1387 10.8711H9.49229C8.96689 10.8711 8.54213 11.2967 8.54213 11.8223C8.54213 12.3482 8.9673 12.7735 9.49229 12.7735H29.2429C29.7683 12.7735 30.193 12.3478 30.193 11.8223C30.1934 11.2963 29.7687 10.8707 29.2433 10.8707L29.2437 10.8706ZM16.042 6.12349C16.2154 5.68234 16.6342 5.39687 17.1103 5.39687H21.6232C22.0993 5.39687 22.5177 5.68194 22.6903 6.12349L24.5528 10.8691H14.1807L16.042 6.12349Z" fill="white"/>
</g>
<path d="M63.4155 21.4426V25H51.1238V6.60237H55.2653V21.4426H63.4155ZM69.773 25H65.8174V11.0359H69.773V25ZM70.1447 7.00059C70.1447 7.72623 69.9058 8.30143 69.4279 8.7262C68.9678 9.13326 68.4191 9.3368 67.7819 9.3368C67.1448 9.3368 66.5873 9.13326 66.1094 8.7262C65.6493 8.30143 65.4192 7.72623 65.4192 7.00059C65.4192 6.27495 65.6493 5.7086 66.1094 5.30153C66.5873 4.87677 67.1448 4.66438 67.7819 4.66438C68.4191 4.66438 68.9678 4.87677 69.4279 5.30153C69.9058 5.7086 70.1447 6.27495 70.1447 7.00059ZM72.8277 18.0179C72.8277 17.0091 72.987 16.0622 73.3055 15.1773C73.6418 14.2747 74.1197 13.496 74.7391 12.8411C75.3586 12.1686 76.1108 11.6376 76.9957 11.2482C77.8806 10.8589 78.8894 10.6642 80.0221 10.6642C80.7655 10.6642 81.4469 10.735 82.0663 10.8766C82.6858 11.0005 83.2875 11.1863 83.8716 11.4341L83.0486 14.5933C82.6769 14.4517 82.2699 14.3278 81.8274 14.2216C81.3849 14.1154 80.8894 14.0623 80.3407 14.0623C79.1726 14.0623 78.2965 14.4251 77.7125 15.1508C77.1461 15.8764 76.863 16.8321 76.863 18.0179C76.863 19.2745 77.1284 20.2479 77.6594 20.9382C78.208 21.6284 79.1549 21.9736 80.5 21.9736C80.9779 21.9736 81.4911 21.9293 82.0398 21.8408C82.5884 21.7523 83.0928 21.6107 83.553 21.416L84.1105 24.6549C83.6503 24.8496 83.0751 25.0177 82.3849 25.1593C81.6947 25.3009 80.9336 25.3717 80.1018 25.3717C78.8275 25.3717 77.7302 25.1858 76.8099 24.8142C75.8895 24.4248 75.1285 23.9027 74.5267 23.2478C73.9427 22.593 73.5091 21.8231 73.2259 20.9382C72.9604 20.0356 72.8277 19.0621 72.8277 18.0179ZM85.4275 18.1241C85.4275 16.8852 85.6134 15.8056 85.985 14.8853C86.3744 13.9473 86.8788 13.1685 87.4983 12.5491C88.1177 11.9296 88.8256 11.4606 89.6221 11.142C90.4362 10.8235 91.268 10.6642 92.1176 10.6642C94.0998 10.6642 95.6661 11.2748 96.8165 12.496C97.9669 13.6995 98.5421 15.4782 98.5421 17.8321C98.5421 18.0622 98.5333 18.3188 98.5156 18.602C98.4979 18.8675 98.4802 19.1064 98.4625 19.3188H89.4893C89.5778 20.1329 89.9583 20.7789 90.6309 21.2568C91.3034 21.7346 92.2061 21.9736 93.3388 21.9736C94.0644 21.9736 94.7723 21.9116 95.4626 21.7877C96.1705 21.6461 96.7457 21.478 97.1882 21.2833L97.7192 24.4956C97.5068 24.6018 97.2236 24.708 96.8696 24.8142C96.5157 24.9204 96.1174 25.0088 95.675 25.0796C95.2502 25.1681 94.79 25.2389 94.2945 25.292C93.7989 25.3451 93.3034 25.3717 92.8078 25.3717C91.5512 25.3717 90.4539 25.1858 89.5159 24.8142C88.5956 24.4425 87.8257 23.9381 87.2062 23.3009C86.6045 22.6461 86.1532 21.8762 85.8523 20.9913C85.5691 20.1064 85.4275 19.1506 85.4275 18.1241ZM94.7193 16.6109C94.7016 16.2746 94.6396 15.9472 94.5334 15.6286C94.4449 15.3101 94.2945 15.0269 94.0821 14.7791C93.8874 14.5313 93.6308 14.3278 93.3122 14.1685C93.0113 14.0092 92.6308 13.9296 92.1707 13.9296C91.7282 13.9296 91.3477 14.0092 91.0291 14.1685C90.7105 14.3101 90.4451 14.5048 90.2327 14.7525C90.0203 15.0003 89.8522 15.2924 89.7283 15.6286C89.6221 15.9472 89.5424 16.2746 89.4893 16.6109H94.7193ZM101.595 11.5137C102.267 11.319 103.134 11.142 104.196 10.9828C105.258 10.8058 106.373 10.7173 107.541 10.7173C108.727 10.7173 109.709 10.8766 110.488 11.1951C111.285 11.496 111.913 11.9296 112.373 12.496C112.833 13.0623 113.161 13.7349 113.355 14.5136C113.55 15.2924 113.647 16.1596 113.647 17.1153V25H109.692V17.5932C109.692 16.3189 109.524 15.4162 109.187 14.8853C108.851 14.3543 108.223 14.0889 107.302 14.0889C107.019 14.0889 106.718 14.1066 106.4 14.1419C106.081 14.1596 105.798 14.1862 105.55 14.2216V25H101.595V11.5137ZM121.237 22.1594C121.962 22.1594 122.475 22.0886 122.776 21.947C123.077 21.8054 123.228 21.5311 123.228 21.124C123.228 20.8054 123.033 20.5311 122.644 20.301C122.254 20.0533 121.661 19.7789 120.865 19.4781C120.245 19.248 119.679 19.009 119.166 18.7613C118.67 18.5135 118.246 18.2215 117.892 17.8852C117.538 17.5312 117.263 17.1153 117.069 16.6374C116.874 16.1596 116.777 15.5844 116.777 14.9118C116.777 13.6021 117.263 12.5668 118.237 11.8057C119.21 11.0447 120.546 10.6642 122.245 10.6642C123.095 10.6642 123.909 10.7438 124.688 10.9031C125.467 11.0447 126.086 11.204 126.546 11.381L125.856 14.4605C125.396 14.3012 124.891 14.1596 124.343 14.0358C123.812 13.9119 123.21 13.8499 122.537 13.8499C121.299 13.8499 120.679 14.195 120.679 14.8853C120.679 15.0446 120.706 15.1862 120.759 15.3101C120.812 15.4339 120.918 15.5578 121.077 15.6817C121.237 15.7879 121.449 15.9118 121.714 16.0534C121.998 16.1773 122.352 16.3189 122.776 16.4782C123.644 16.7967 124.36 17.1153 124.927 17.4339C125.493 17.7348 125.936 18.071 126.254 18.4427C126.59 18.7967 126.82 19.1949 126.944 19.6373C127.086 20.0798 127.157 20.5931 127.157 21.1771C127.157 22.5576 126.635 23.6018 125.59 24.3098C124.564 25.0177 123.104 25.3717 121.21 25.3717C119.971 25.3717 118.936 25.2655 118.104 25.0531C117.29 24.8407 116.723 24.6637 116.405 24.5221L117.069 21.3099C117.741 21.5753 118.431 21.7877 119.139 21.947C119.847 22.0886 120.546 22.1594 121.237 22.1594ZM129.449 18.1241C129.449 16.8852 129.635 15.8056 130.007 14.8853C130.396 13.9473 130.9 13.1685 131.52 12.5491C132.139 11.9296 132.847 11.4606 133.644 11.142C134.458 10.8235 135.29 10.6642 136.139 10.6642C138.121 10.6642 139.688 11.2748 140.838 12.496C141.989 13.6995 142.564 15.4782 142.564 17.8321C142.564 18.0622 142.555 18.3188 142.537 18.602C142.52 18.8675 142.502 19.1064 142.484 19.3188H133.511C133.599 20.1329 133.98 20.7789 134.653 21.2568C135.325 21.7346 136.228 21.9736 137.36 21.9736C138.086 21.9736 138.794 21.9116 139.484 21.7877C140.192 21.6461 140.767 21.478 141.21 21.2833L141.741 24.4956C141.528 24.6018 141.245 24.708 140.891 24.8142C140.537 24.9204 140.139 25.0088 139.697 25.0796C139.272 25.1681 138.812 25.2389 138.316 25.292C137.821 25.3451 137.325 25.3717 136.829 25.3717C135.573 25.3717 134.476 25.1858 133.538 24.8142C132.617 24.4425 131.847 23.9381 131.228 23.3009C130.626 22.6461 130.175 21.8762 129.874 20.9913C129.591 20.1064 129.449 19.1506 129.449 18.1241ZM138.741 16.6109C138.723 16.2746 138.661 15.9472 138.555 15.6286C138.467 15.3101 138.316 15.0269 138.104 14.7791C137.909 14.5313 137.652 14.3278 137.334 14.1685C137.033 14.0092 136.652 13.9296 136.192 13.9296C135.75 13.9296 135.369 14.0092 135.051 14.1685C134.732 14.3101 134.467 14.5048 134.254 14.7525C134.042 15.0003 133.874 15.2924 133.75 15.6286C133.644 15.9472 133.564 16.2746 133.511 16.6109H138.741ZM160.649 25.3717C157.658 25.3717 155.374 24.5398 153.799 22.8762C152.242 21.2125 151.463 18.8498 151.463 15.7879C151.463 14.2658 151.702 12.9119 152.18 11.7261C152.658 10.5226 153.313 9.51378 154.144 8.69965C154.976 7.86782 155.967 7.23952 157.118 6.81475C158.268 6.38999 159.516 6.17761 160.861 6.17761C161.64 6.17761 162.348 6.23955 162.985 6.36344C163.622 6.46963 164.18 6.60237 164.657 6.76166C165.135 6.90325 165.533 7.05369 165.852 7.21297C166.171 7.37226 166.401 7.49615 166.542 7.58464L165.348 10.9297C164.781 10.6288 164.118 10.3722 163.357 10.1598C162.613 9.9474 161.764 9.8412 160.808 9.8412C160.171 9.8412 159.542 9.9474 158.923 10.1598C158.321 10.3722 157.781 10.7173 157.304 11.1951C156.843 11.6553 156.472 12.2571 156.189 13.0004C155.905 13.7437 155.764 14.6464 155.764 15.7083C155.764 16.5578 155.852 17.3542 156.029 18.0976C156.224 18.8232 156.525 19.4515 156.932 19.9825C157.357 20.5134 157.905 20.9382 158.578 21.2568C159.25 21.5576 160.065 21.7081 161.02 21.7081C161.622 21.7081 162.162 21.6727 162.64 21.6019C163.118 21.5311 163.542 21.4514 163.914 21.363C164.286 21.2568 164.613 21.1417 164.896 21.0178C165.179 20.8939 165.436 20.7789 165.666 20.6727L166.808 23.9912C166.224 24.3452 165.401 24.6637 164.339 24.9469C163.277 25.2301 162.047 25.3717 160.649 25.3717ZM169.209 25V5.03605L173.164 4.39891V11.089C173.43 11.0005 173.766 10.9208 174.173 10.85C174.598 10.7615 175.005 10.7173 175.394 10.7173C176.527 10.7173 177.465 10.8766 178.208 11.1951C178.969 11.496 179.571 11.9296 180.014 12.496C180.474 13.0623 180.792 13.7349 180.969 14.5136C181.164 15.2924 181.261 16.1596 181.261 17.1153V25H177.306V17.5932C177.306 16.3189 177.138 15.4162 176.801 14.8853C176.483 14.3543 175.881 14.0889 174.996 14.0889C174.642 14.0889 174.306 14.1243 173.987 14.195C173.686 14.2481 173.412 14.3101 173.164 14.3809V25H169.209ZM184.178 18.1241C184.178 16.8852 184.364 15.8056 184.736 14.8853C185.125 13.9473 185.629 13.1685 186.249 12.5491C186.868 11.9296 187.576 11.4606 188.373 11.142C189.187 10.8235 190.019 10.6642 190.868 10.6642C192.85 10.6642 194.417 11.2748 195.567 12.496C196.718 13.6995 197.293 15.4782 197.293 17.8321C197.293 18.0622 197.284 18.3188 197.266 18.602C197.248 18.8675 197.231 19.1064 197.213 19.3188H188.24C188.328 20.1329 188.709 20.7789 189.381 21.2568C190.054 21.7346 190.957 21.9736 192.089 21.9736C192.815 21.9736 193.523 21.9116 194.213 21.7877C194.921 21.6461 195.496 21.478 195.939 21.2833L196.47 24.4956C196.257 24.6018 195.974 24.708 195.62 24.8142C195.266 24.9204 194.868 25.0088 194.426 25.0796C194.001 25.1681 193.541 25.2389 193.045 25.292C192.55 25.3451 192.054 25.3717 191.558 25.3717C190.302 25.3717 189.204 25.1858 188.266 24.8142C187.346 24.4425 186.576 23.9381 185.957 23.3009C185.355 22.6461 184.904 21.8762 184.603 20.9913C184.32 20.1064 184.178 19.1506 184.178 18.1241ZM193.47 16.6109C193.452 16.2746 193.39 15.9472 193.284 15.6286C193.195 15.3101 193.045 15.0269 192.833 14.7791C192.638 14.5313 192.381 14.3278 192.063 14.1685C191.762 14.0092 191.381 13.9296 190.921 13.9296C190.479 13.9296 190.098 14.0092 189.78 14.1685C189.461 14.3101 189.196 14.5048 188.983 14.7525C188.771 15.0003 188.603 15.2924 188.479 15.6286C188.373 15.9472 188.293 16.2746 188.24 16.6109H193.47ZM199.682 18.0179C199.682 17.0091 199.841 16.0622 200.159 15.1773C200.496 14.2747 200.974 13.496 201.593 12.8411C202.212 12.1686 202.965 11.6376 203.85 11.2482C204.735 10.8589 205.743 10.6642 206.876 10.6642C207.619 10.6642 208.301 10.735 208.92 10.8766C209.54 11.0005 210.141 11.1863 210.725 11.4341L209.902 14.5933C209.531 14.4517 209.124 14.3278 208.681 14.2216C208.239 14.1154 207.743 14.0623 207.195 14.0623C206.027 14.0623 205.15 14.4251 204.566 15.1508C204 15.8764 203.717 16.8321 203.717 18.0179C203.717 19.2745 203.982 20.2479 204.513 20.9382C205.062 21.6284 206.009 21.9736 207.354 21.9736C207.832 21.9736 208.345 21.9293 208.894 21.8408C209.442 21.7523 209.947 21.6107 210.407 21.416L210.964 24.6549C210.504 24.8496 209.929 25.0177 209.239 25.1593C208.549 25.3009 207.788 25.3717 206.956 25.3717C205.681 25.3717 204.584 25.1858 203.664 24.8142C202.743 24.4248 201.982 23.9027 201.381 23.2478C200.797 22.593 200.363 21.8231 200.08 20.9382C199.814 20.0356 199.682 19.0621 199.682 18.0179ZM217.575 16.0799C217.964 15.6552 218.362 15.2127 218.769 14.7525C219.194 14.2924 219.601 13.8411 219.991 13.3986C220.38 12.9384 220.743 12.5048 221.079 12.0978C221.433 11.6907 221.734 11.3367 221.982 11.0359H226.681C225.743 12.1155 224.822 13.1508 223.92 14.1419C223.035 15.1154 222.061 16.1242 220.999 17.1684C221.53 17.6463 222.079 18.2215 222.645 18.894C223.212 19.5489 223.76 20.2302 224.291 20.9382C224.822 21.6461 225.309 22.3541 225.752 23.062C226.194 23.77 226.566 24.4159 226.867 25H222.327C222.044 24.5398 221.716 24.0354 221.345 23.4868C220.991 22.9204 220.61 22.3629 220.203 21.8143C219.796 21.2479 219.362 20.7081 218.902 20.1948C218.46 19.6816 218.017 19.248 217.575 18.894V25H213.619V5.03605L217.575 4.39891V16.0799ZM227.37 18.1241C227.37 16.8852 227.556 15.8056 227.928 14.8853C228.317 13.9473 228.821 13.1685 229.441 12.5491C230.06 11.9296 230.768 11.4606 231.565 11.142C232.379 10.8235 233.211 10.6642 234.06 10.6642C236.042 10.6642 237.609 11.2748 238.759 12.496C239.91 13.6995 240.485 15.4782 240.485 17.8321C240.485 18.0622 240.476 18.3188 240.458 18.602C240.44 18.8675 240.423 19.1064 240.405 19.3188H231.432C231.52 20.1329 231.901 20.7789 232.573 21.2568C233.246 21.7346 234.149 21.9736 235.281 21.9736C236.007 21.9736 236.715 21.9116 237.405 21.7877C238.113 21.6461 238.688 21.478 239.131 21.2833L239.662 24.4956C239.449 24.6018 239.166 24.708 238.812 24.8142C238.458 24.9204 238.06 25.0088 237.618 25.0796C237.193 25.1681 236.733 25.2389 236.237 25.292C235.742 25.3451 235.246 25.3717 234.75 25.3717C233.494 25.3717 232.396 25.1858 231.458 24.8142C230.538 24.4425 229.768 23.9381 229.149 23.3009C228.547 22.6461 228.096 21.8762 227.795 20.9913C227.512 20.1064 227.37 19.1506 227.37 18.1241ZM236.662 16.6109C236.644 16.2746 236.582 15.9472 236.476 15.6286C236.388 15.3101 236.237 15.0269 236.025 14.7791C235.83 14.5313 235.573 14.3278 235.255 14.1685C234.954 14.0092 234.573 13.9296 234.113 13.9296C233.671 13.9296 233.29 14.0092 232.972 14.1685C232.653 14.3101 232.388 14.5048 232.175 14.7525C231.963 15.0003 231.795 15.2924 231.671 15.6286C231.565 15.9472 231.485 16.2746 231.432 16.6109H236.662ZM251.953 14.5402C251.599 14.4517 251.183 14.3632 250.705 14.2747C250.227 14.1685 249.714 14.1154 249.165 14.1154C248.918 14.1154 248.617 14.1419 248.263 14.195C247.927 14.2304 247.67 14.2747 247.493 14.3278V25H243.537V11.7792C244.245 11.5314 245.077 11.3013 246.033 11.089C247.006 10.8589 248.086 10.7438 249.272 10.7438C249.484 10.7438 249.741 10.7615 250.042 10.7969C250.342 10.8146 250.643 10.85 250.944 10.9031C251.245 10.9385 251.546 10.9916 251.847 11.0624C252.148 11.1155 252.404 11.1863 252.617 11.2748L251.953 14.5402Z" fill="url(#paint1_linear_6_45)"/>
<defs>
<linearGradient id="paint0_linear_6_45" x1="3.4945" y1="1.16484" x2="39.6044" y2="30.2857" gradientUnits="userSpaceOnUse">
<stop stop-color="#0040E3"/>
<stop offset="0.651042" stop-color="#620CC4"/>
<stop offset="1" stop-color="#6C00C0"/>
</linearGradient>
<linearGradient id="paint1_linear_6_45" x1="49" y1="16" x2="253" y2="20" gradientUnits="userSpaceOnUse">
<stop stop-color="#5B0EB5"/>
<stop offset="1" stop-color="#1E1B93"/>
</linearGradient>
<clipPath id="clip0_6_45">
<rect width="39.75" height="30.2857" fill="white"/>
</clipPath>
</defs>
</svg>
