<svg width="299" height="65" viewBox="0 0 299 65" fill="none" xmlns="http://www.w3.org/2000/svg">
<rect x="1" y="1" width="297" height="63" stroke="#1E1B93" stroke-width="2"/>
<g clip-path="url(#clip0_6_64)">
<path d="M61.8375 40.473H59.9108V20.7066C59.9108 18.7108 58.287 17.0867 56.2909 17.0867L29.4552 17.087C27.4643 17.087 25.8442 18.7109 25.8442 20.7069V40.4724H23.9127C23.6283 40.4724 23.3644 40.618 23.2139 40.8589C23.0635 41.0997 23.0473 41.4006 23.1711 41.6566C24.7846 44.985 28.2241 47.1353 31.9334 47.1353H53.8171C57.5253 47.1353 60.9648 44.9849 62.5783 41.6566C62.7022 41.4006 62.6863 41.0994 62.5355 40.8589C62.3854 40.618 62.1211 40.4724 61.8371 40.4724C61.5532 40.4724 61.8375 40.473 61.8375 40.473Z" fill="url(#paint0_linear_6_64)"/>
<line x1="51.3275" y1="38.9706" x2="53.9323" y2="41.2498" stroke="white" stroke-width="1.73971" stroke-linecap="round"/>
<path d="M47.5835 32.2585C47.1637 32.2585 46.7655 32.3341 46.38 32.4414C45.5827 31.6349 43.9386 31.32 42.368 31.32C40.7975 31.32 39.1533 31.6349 38.3561 32.4414C37.9706 32.3345 37.5724 32.2585 37.1525 32.2585C34.6984 32.2585 32.702 34.2161 32.702 36.6215C32.702 39.028 34.6984 40.9855 37.1525 40.9855C39.6055 40.9855 41.6019 39.028 41.6019 36.6215C41.6019 35.3869 41.0711 34.276 40.2275 33.4814C40.6725 33.331 41.3938 33.1915 42.3681 33.1915C43.3424 33.1915 44.0638 33.331 44.5088 33.4814C43.6652 34.2761 43.1343 35.3869 43.1343 36.6215C43.1343 39.028 45.1307 40.9855 47.5838 40.9855C50.0368 40.9855 52.0332 39.028 52.0332 36.6215C52.0336 34.2162 50.0371 32.2585 47.5838 32.2585H47.5835ZM37.1523 39.1137C35.7507 39.1137 34.6107 37.9959 34.6107 36.6215C34.6107 35.2478 35.7507 34.1299 37.1523 34.1299C38.5531 34.1299 39.6932 35.2477 39.6932 36.6215C39.6928 37.9963 38.5532 39.1137 37.1523 39.1137ZM47.5835 39.1137C46.1827 39.1137 45.0427 37.9959 45.0427 36.6215C45.0427 35.2478 46.1826 34.1299 47.5835 34.1299C48.9845 34.1299 50.1244 35.2477 50.1244 36.6215C50.1244 37.9963 48.9845 39.1137 47.5835 39.1137Z" fill="white"/>
<path d="M52.2437 27.8706H49.5956L47.4606 22.4295C47.0012 21.2542 45.8876 20.4945 44.6237 20.4945H40.1107C38.8475 20.4945 37.7339 21.2534 37.2737 22.4288L35.1387 27.8711H32.4923C31.9669 27.8711 31.5421 28.2967 31.5421 28.8223C31.5421 29.3482 31.9673 29.7735 32.4923 29.7735H52.2429C52.7683 29.7735 53.193 29.3478 53.193 28.8223C53.1934 28.2963 52.7687 27.8707 52.2433 27.8707L52.2437 27.8706ZM39.042 23.1235C39.2154 22.6823 39.6342 22.3969 40.1103 22.3969H44.6232C45.0993 22.3969 45.5177 22.6819 45.6903 23.1235L47.5528 27.8691H37.1807L39.042 23.1235Z" fill="white"/>
</g>
<path d="M86.4155 38.4426V42H74.1238V23.6024H78.2653V38.4426H86.4155ZM92.773 42H88.8174V28.0359H92.773V42ZM93.1447 24.0006C93.1447 24.7262 92.9058 25.3014 92.4279 25.7262C91.9678 26.1333 91.4191 26.3368 90.7819 26.3368C90.1448 26.3368 89.5873 26.1333 89.1094 25.7262C88.6493 25.3014 88.4192 24.7262 88.4192 24.0006C88.4192 23.2749 88.6493 22.7086 89.1094 22.3015C89.5873 21.8768 90.1448 21.6644 90.7819 21.6644C91.4191 21.6644 91.9678 21.8768 92.4279 22.3015C92.9058 22.7086 93.1447 23.2749 93.1447 24.0006ZM95.8277 35.0179C95.8277 34.0091 95.987 33.0622 96.3055 32.1773C96.6418 31.2747 97.1197 30.496 97.7391 29.8411C98.3586 29.1686 99.1108 28.6376 99.9957 28.2482C100.881 27.8589 101.889 27.6642 103.022 27.6642C103.765 27.6642 104.447 27.735 105.066 27.8766C105.686 28.0005 106.288 28.1863 106.872 28.4341L106.049 31.5933C105.677 31.4517 105.27 31.3278 104.827 31.2216C104.385 31.1154 103.889 31.0623 103.341 31.0623C102.173 31.0623 101.297 31.4251 100.712 32.1508C100.146 32.8764 99.863 33.8321 99.863 35.0179C99.863 36.2745 100.128 37.2479 100.659 37.9382C101.208 38.6284 102.155 38.9736 103.5 38.9736C103.978 38.9736 104.491 38.9293 105.04 38.8408C105.588 38.7523 106.093 38.6107 106.553 38.416L107.111 41.6549C106.65 41.8496 106.075 42.0177 105.385 42.1593C104.695 42.3009 103.934 42.3717 103.102 42.3717C101.827 42.3717 100.73 42.1858 99.8099 41.8142C98.8895 41.4248 98.1285 40.9027 97.5267 40.2478C96.9427 39.593 96.5091 38.8231 96.2259 37.9382C95.9604 37.0356 95.8277 36.0621 95.8277 35.0179ZM108.428 35.1241C108.428 33.8852 108.613 32.8056 108.985 31.8853C109.374 30.9473 109.879 30.1685 110.498 29.5491C111.118 28.9296 111.826 28.4606 112.622 28.142C113.436 27.8235 114.268 27.6642 115.118 27.6642C117.1 27.6642 118.666 28.2748 119.817 29.496C120.967 30.6995 121.542 32.4782 121.542 34.8321C121.542 35.0622 121.533 35.3188 121.516 35.602C121.498 35.8675 121.48 36.1064 121.462 36.3188H112.489C112.578 37.1329 112.958 37.7789 113.631 38.2568C114.303 38.7346 115.206 38.9736 116.339 38.9736C117.064 38.9736 117.772 38.9116 118.463 38.7877C119.171 38.6461 119.746 38.478 120.188 38.2833L120.719 41.4956C120.507 41.6018 120.224 41.708 119.87 41.8142C119.516 41.9204 119.117 42.0088 118.675 42.0796C118.25 42.1681 117.79 42.2389 117.294 42.292C116.799 42.3451 116.303 42.3717 115.808 42.3717C114.551 42.3717 113.454 42.1858 112.516 41.8142C111.596 41.4425 110.826 40.9381 110.206 40.3009C109.604 39.6461 109.153 38.8762 108.852 37.9913C108.569 37.1064 108.428 36.1506 108.428 35.1241ZM117.719 33.6109C117.702 33.2746 117.64 32.9472 117.533 32.6286C117.445 32.3101 117.294 32.0269 117.082 31.7791C116.887 31.5313 116.631 31.3278 116.312 31.1685C116.011 31.0092 115.631 30.9296 115.171 30.9296C114.728 30.9296 114.348 31.0092 114.029 31.1685C113.711 31.3101 113.445 31.5048 113.233 31.7525C113.02 32.0003 112.852 32.2924 112.728 32.6286C112.622 32.9472 112.542 33.2746 112.489 33.6109H117.719ZM124.595 28.5137C125.267 28.319 126.134 28.142 127.196 27.9828C128.258 27.8058 129.373 27.7173 130.541 27.7173C131.727 27.7173 132.709 27.8766 133.488 28.1951C134.285 28.496 134.913 28.9296 135.373 29.496C135.833 30.0623 136.161 30.7349 136.355 31.5136C136.55 32.2924 136.647 33.1596 136.647 34.1153V42H132.692V34.5932C132.692 33.3189 132.524 32.4162 132.187 31.8853C131.851 31.3543 131.223 31.0889 130.302 31.0889C130.019 31.0889 129.718 31.1066 129.4 31.1419C129.081 31.1596 128.798 31.1862 128.55 31.2216V42H124.595V28.5137ZM139.564 35.0179C139.564 34.0091 139.723 33.0622 140.042 32.1773C140.378 31.2747 140.856 30.496 141.476 29.8411C142.095 29.1686 142.847 28.6376 143.732 28.2482C144.617 27.8589 145.626 27.6642 146.759 27.6642C147.502 27.6642 148.183 27.735 148.803 27.8766C149.422 28.0005 150.024 28.1863 150.608 28.4341L149.785 31.5933C149.413 31.4517 149.006 31.3278 148.564 31.2216C148.121 31.1154 147.626 31.0623 147.077 31.0623C145.909 31.0623 145.033 31.4251 144.449 32.1508C143.883 32.8764 143.599 33.8321 143.599 35.0179C143.599 36.2745 143.865 37.2479 144.396 37.9382C144.945 38.6284 145.891 38.9736 147.236 38.9736C147.714 38.9736 148.228 38.9293 148.776 38.8408C149.325 38.7523 149.829 38.6107 150.289 38.416L150.847 41.6549C150.387 41.8496 149.812 42.0177 149.121 42.1593C148.431 42.3009 147.67 42.3717 146.838 42.3717C145.564 42.3717 144.467 42.1858 143.546 41.8142C142.626 41.4248 141.865 40.9027 141.263 40.2478C140.679 39.593 140.246 38.8231 139.962 37.9382C139.697 37.0356 139.564 36.0621 139.564 35.0179ZM152.164 35.1241C152.164 33.8852 152.35 32.8056 152.721 31.8853C153.111 30.9473 153.615 30.1685 154.235 29.5491C154.854 28.9296 155.562 28.4606 156.359 28.142C157.173 27.8235 158.005 27.6642 158.854 27.6642C160.836 27.6642 162.403 28.2748 163.553 29.496C164.703 30.6995 165.279 32.4782 165.279 34.8321C165.279 35.0622 165.27 35.3188 165.252 35.602C165.234 35.8675 165.217 36.1064 165.199 36.3188H156.226C156.314 37.1329 156.695 37.7789 157.367 38.2568C158.04 38.7346 158.943 38.9736 160.075 38.9736C160.801 38.9736 161.509 38.9116 162.199 38.7877C162.907 38.6461 163.482 38.478 163.925 38.2833L164.456 41.4956C164.243 41.6018 163.96 41.708 163.606 41.8142C163.252 41.9204 162.854 42.0088 162.411 42.0796C161.987 42.1681 161.527 42.2389 161.031 42.292C160.535 42.3451 160.04 42.3717 159.544 42.3717C158.288 42.3717 157.19 42.1858 156.252 41.8142C155.332 41.4425 154.562 40.9381 153.943 40.3009C153.341 39.6461 152.89 38.8762 152.589 37.9913C152.306 37.1064 152.164 36.1506 152.164 35.1241ZM161.456 33.6109C161.438 33.2746 161.376 32.9472 161.27 32.6286C161.181 32.3101 161.031 32.0269 160.819 31.7791C160.624 31.5313 160.367 31.3278 160.049 31.1685C159.748 31.0092 159.367 30.9296 158.907 30.9296C158.465 30.9296 158.084 31.0092 157.766 31.1685C157.447 31.3101 157.182 31.5048 156.969 31.7525C156.757 32.0003 156.589 32.2924 156.465 32.6286C156.359 32.9472 156.279 33.2746 156.226 33.6109H161.456ZM183.363 42.3717C180.372 42.3717 178.089 41.5398 176.514 39.8762C174.957 38.2125 174.178 35.8498 174.178 32.7879C174.178 31.2658 174.417 29.9119 174.895 28.7261C175.373 27.5226 176.027 26.5138 176.859 25.6996C177.691 24.8678 178.682 24.2395 179.833 23.8148C180.983 23.39 182.231 23.1776 183.576 23.1776C184.355 23.1776 185.063 23.2396 185.7 23.3634C186.337 23.4696 186.894 23.6024 187.372 23.7617C187.85 23.9032 188.248 24.0537 188.567 24.213C188.885 24.3723 189.115 24.4961 189.257 24.5846L188.062 27.9297C187.496 27.6288 186.832 27.3722 186.071 27.1598C185.328 26.9474 184.478 26.8412 183.523 26.8412C182.886 26.8412 182.257 26.9474 181.638 27.1598C181.036 27.3722 180.496 27.7173 180.018 28.1951C179.558 28.6553 179.187 29.2571 178.903 30.0004C178.62 30.7437 178.479 31.6464 178.479 32.7083C178.479 33.5578 178.567 34.3542 178.744 35.0976C178.939 35.8232 179.24 36.4515 179.647 36.9825C180.072 37.5134 180.62 37.9382 181.293 38.2568C181.965 38.5576 182.779 38.7081 183.735 38.7081C184.337 38.7081 184.877 38.6727 185.355 38.6019C185.832 38.5311 186.257 38.4514 186.629 38.363C187.001 38.2568 187.328 38.1417 187.611 38.0178C187.894 37.8939 188.151 37.7789 188.381 37.6727L189.523 40.9912C188.939 41.3452 188.116 41.6637 187.054 41.9469C185.992 42.2301 184.762 42.3717 183.363 42.3717ZM191.923 42V22.0361L195.879 21.3989V28.089C196.145 28.0005 196.481 27.9208 196.888 27.85C197.313 27.7615 197.72 27.7173 198.109 27.7173C199.242 27.7173 200.18 27.8766 200.923 28.1951C201.684 28.496 202.286 28.9296 202.728 29.496C203.189 30.0623 203.507 30.7349 203.684 31.5136C203.879 32.2924 203.976 33.1596 203.976 34.1153V42H200.021V34.5932C200.021 33.3189 199.852 32.4162 199.516 31.8853C199.198 31.3543 198.596 31.0889 197.711 31.0889C197.357 31.0889 197.021 31.1243 196.702 31.195C196.401 31.2481 196.127 31.3101 195.879 31.3809V42H191.923ZM206.893 35.1241C206.893 33.8852 207.079 32.8056 207.45 31.8853C207.84 30.9473 208.344 30.1685 208.964 29.5491C209.583 28.9296 210.291 28.4606 211.087 28.142C211.902 27.8235 212.733 27.6642 213.583 27.6642C215.565 27.6642 217.132 28.2748 218.282 29.496C219.432 30.6995 220.008 32.4782 220.008 34.8321C220.008 35.0622 219.999 35.3188 219.981 35.602C219.963 35.8675 219.946 36.1064 219.928 36.3188H210.955C211.043 37.1329 211.424 37.7789 212.096 38.2568C212.769 38.7346 213.671 38.9736 214.804 38.9736C215.53 38.9736 216.238 38.9116 216.928 38.7877C217.636 38.6461 218.211 38.478 218.654 38.2833L219.185 41.4956C218.972 41.6018 218.689 41.708 218.335 41.8142C217.981 41.9204 217.583 42.0088 217.14 42.0796C216.716 42.1681 216.255 42.2389 215.76 42.292C215.264 42.3451 214.769 42.3717 214.273 42.3717C213.017 42.3717 211.919 42.1858 210.981 41.8142C210.061 41.4425 209.291 40.9381 208.672 40.3009C208.07 39.6461 207.619 38.8762 207.318 37.9913C207.034 37.1064 206.893 36.1506 206.893 35.1241ZM216.185 33.6109C216.167 33.2746 216.105 32.9472 215.999 32.6286C215.91 32.3101 215.76 32.0269 215.547 31.7791C215.353 31.5313 215.096 31.3278 214.778 31.1685C214.477 31.0092 214.096 30.9296 213.636 30.9296C213.194 30.9296 212.813 31.0092 212.494 31.1685C212.176 31.3101 211.91 31.5048 211.698 31.7525C211.486 32.0003 211.318 32.2924 211.194 32.6286C211.087 32.9472 211.008 33.2746 210.955 33.6109H216.185ZM222.396 35.0179C222.396 34.0091 222.556 33.0622 222.874 32.1773C223.211 31.2747 223.688 30.496 224.308 29.8411C224.927 29.1686 225.679 28.6376 226.564 28.2482C227.449 27.8589 228.458 27.6642 229.591 27.6642C230.334 27.6642 231.016 27.735 231.635 27.8766C232.254 28.0005 232.856 28.1863 233.44 28.4341L232.617 31.5933C232.246 31.4517 231.839 31.3278 231.396 31.2216C230.954 31.1154 230.458 31.0623 229.909 31.0623C228.741 31.0623 227.865 31.4251 227.281 32.1508C226.715 32.8764 226.432 33.8321 226.432 35.0179C226.432 36.2745 226.697 37.2479 227.228 37.9382C227.777 38.6284 228.724 38.9736 230.069 38.9736C230.547 38.9736 231.06 38.9293 231.608 38.8408C232.157 38.7523 232.662 38.6107 233.122 38.416L233.679 41.6549C233.219 41.8496 232.644 42.0177 231.954 42.1593C231.263 42.3009 230.502 42.3717 229.671 42.3717C228.396 42.3717 227.299 42.1858 226.379 41.8142C225.458 41.4248 224.697 40.9027 224.095 40.2478C223.511 39.593 223.078 38.8231 222.795 37.9382C222.529 37.0356 222.396 36.0621 222.396 35.0179ZM240.29 33.0799C240.679 32.6552 241.077 32.2127 241.484 31.7525C241.909 31.2924 242.316 30.8411 242.705 30.3986C243.095 29.9384 243.458 29.5048 243.794 29.0978C244.148 28.6907 244.449 28.3367 244.697 28.0359H249.396C248.458 29.1155 247.537 30.1508 246.635 31.1419C245.75 32.1154 244.776 33.1242 243.714 34.1684C244.245 34.6463 244.794 35.2215 245.36 35.894C245.927 36.5489 246.475 37.2302 247.006 37.9382C247.537 38.6461 248.024 39.3541 248.466 40.062C248.909 40.77 249.28 41.4159 249.581 42H245.042C244.759 41.5398 244.431 41.0354 244.059 40.4868C243.705 39.9204 243.325 39.3629 242.918 38.8143C242.511 38.2479 242.077 37.7081 241.617 37.1948C241.175 36.6816 240.732 36.248 240.29 35.894V42H236.334V22.0361L240.29 21.3989V33.0799ZM250.085 35.1241C250.085 33.8852 250.271 32.8056 250.642 31.8853C251.032 30.9473 251.536 30.1685 252.156 29.5491C252.775 28.9296 253.483 28.4606 254.279 28.142C255.094 27.8235 255.925 27.6642 256.775 27.6642C258.757 27.6642 260.324 28.2748 261.474 29.496C262.624 30.6995 263.2 32.4782 263.2 34.8321C263.2 35.0622 263.191 35.3188 263.173 35.602C263.155 35.8675 263.138 36.1064 263.12 36.3188H254.147C254.235 37.1329 254.616 37.7789 255.288 38.2568C255.961 38.7346 256.863 38.9736 257.996 38.9736C258.722 38.9736 259.43 38.9116 260.12 38.7877C260.828 38.6461 261.403 38.478 261.846 38.2833L262.377 41.4956C262.164 41.6018 261.881 41.708 261.527 41.8142C261.173 41.9204 260.775 42.0088 260.332 42.0796C259.908 42.1681 259.447 42.2389 258.952 42.292C258.456 42.3451 257.961 42.3717 257.465 42.3717C256.209 42.3717 255.111 42.1858 254.173 41.8142C253.253 41.4425 252.483 40.9381 251.864 40.3009C251.262 39.6461 250.811 38.8762 250.51 37.9913C250.227 37.1064 250.085 36.1506 250.085 35.1241ZM259.377 33.6109C259.359 33.2746 259.297 32.9472 259.191 32.6286C259.102 32.3101 258.952 32.0269 258.74 31.7791C258.545 31.5313 258.288 31.3278 257.97 31.1685C257.669 31.0092 257.288 30.9296 256.828 30.9296C256.386 30.9296 256.005 31.0092 255.687 31.1685C255.368 31.3101 255.102 31.5048 254.89 31.7525C254.678 32.0003 254.51 32.2924 254.386 32.6286C254.279 32.9472 254.2 33.2746 254.147 33.6109H259.377ZM274.668 31.5402C274.314 31.4517 273.898 31.3632 273.42 31.2747C272.942 31.1685 272.429 31.1154 271.88 31.1154C271.632 31.1154 271.332 31.1419 270.978 31.195C270.641 31.2304 270.385 31.2747 270.208 31.3278V42H266.252V28.7792C266.96 28.5314 267.792 28.3013 268.748 28.089C269.721 27.8589 270.801 27.7438 271.986 27.7438C272.199 27.7438 272.455 27.7615 272.756 27.7969C273.057 27.8146 273.358 27.85 273.659 27.9031C273.96 27.9385 274.261 27.9916 274.562 28.0624C274.862 28.1155 275.119 28.1863 275.331 28.2748L274.668 31.5402Z" fill="url(#paint1_linear_6_64)"/>
<defs>
<linearGradient id="paint0_linear_6_64" x1="26.4945" y1="18.1648" x2="62.6044" y2="47.2857" gradientUnits="userSpaceOnUse">
<stop stop-color="#0040E3"/>
<stop offset="0.651042" stop-color="#620CC4"/>
<stop offset="1" stop-color="#6C00C0"/>
</linearGradient>
<linearGradient id="paint1_linear_6_64" x1="72" y1="33" x2="276" y2="37" gradientUnits="userSpaceOnUse">
<stop stop-color="#5B0EB5"/>
<stop offset="1" stop-color="#1E1B93"/>
</linearGradient>
<clipPath id="clip0_6_64">
<rect width="39.75" height="30.2857" fill="white" transform="translate(23 17)"/>
</clipPath>
</defs>
</svg>
