<svg width="103" height="78" viewBox="0 0 103 78" fill="none" xmlns="http://www.w3.org/2000/svg">
<g clip-path="url(#clip0_2_6)">
<path d="M100.025 60.4539H95.0627V9.54622C95.0627 4.40609 90.8806 0.223274 85.7397 0.223274L16.6252 0.224161C11.4976 0.224161 7.32527 4.40629 7.32527 9.54711V60.4525H2.35053C1.61825 60.4525 0.938436 60.8275 0.550958 61.4478C0.16348 62.0681 0.121735 62.843 0.440763 63.5024C4.59628 72.0746 13.4544 77.6127 23.0076 77.6127H79.3685C88.9189 77.6127 97.7773 72.0744 101.933 63.5024C102.252 62.843 102.211 62.0672 101.823 61.4478C101.436 60.8275 100.755 60.4525 100.024 60.4525C99.2926 60.4525 100.025 60.4539 100.025 60.4539Z" fill="url(#paint0_linear_2_6)"/>
<line x1="72.9566" y1="56.5846" x2="79.6654" y2="62.4548" stroke="white" stroke-width="4.48057" stroke-linecap="round"/>
<path d="M63.3142 39.2977C62.233 39.2977 61.2073 39.4924 60.2145 39.7688C58.1611 37.6918 53.9268 36.8806 49.8818 36.8806C45.8369 36.8806 41.6023 37.6917 39.5492 39.7688C38.5564 39.4934 37.5308 39.2977 36.4494 39.2977C30.1288 39.2977 24.9872 44.3395 24.9872 50.5345C24.9872 56.7323 30.1288 61.7741 36.4494 61.7741C42.7669 61.7741 47.9087 56.7323 47.9087 50.5345C47.9087 47.355 46.5415 44.4939 44.3689 42.4473C45.5149 42.0599 47.3728 41.7008 49.8821 41.7008C52.3914 41.7008 54.2491 42.0599 55.3953 42.4473C53.2225 44.4941 51.8554 47.355 51.8554 50.5345C51.8554 56.7323 56.997 61.7741 63.3148 61.7741C69.6325 61.7741 74.7741 56.7323 74.7741 50.5345C74.7751 44.3397 69.6333 39.2977 63.3148 39.2977H63.3142ZM36.4489 56.9531C32.839 56.9531 29.9031 54.0742 29.9031 50.5345C29.9031 46.9968 32.839 44.1176 36.4489 44.1176C40.0567 44.1176 42.9929 46.9965 42.9929 50.5345C42.9918 54.0753 40.0569 56.9531 36.4489 56.9531ZM63.3142 56.9531C59.7065 56.9531 56.7703 54.0742 56.7703 50.5345C56.7703 46.9968 59.7062 44.1176 63.3142 44.1176C66.9223 44.1176 69.8582 46.9965 69.8582 50.5345C69.8582 54.0753 66.9223 56.9531 63.3142 56.9531Z" fill="white"/>
<path d="M75.3163 27.9969H68.4962L62.9976 13.9835C61.8145 10.9565 58.9464 9 55.6911 9H44.0681C40.8149 9 37.9466 10.9545 36.7616 13.9816L31.2629 27.9982H24.4471C23.094 27.9982 22 29.0944 22 30.448C22 31.8026 23.095 32.8977 24.4471 32.8977H75.3142C76.6673 32.8977 77.7613 31.8015 77.7613 30.448C77.7623 29.0934 76.6683 27.9972 75.3152 27.9972L75.3163 27.9969ZM41.3157 15.7709C41.7623 14.6347 42.841 13.8995 44.067 13.8995H55.69C56.9162 13.8995 57.9938 14.6337 58.4382 15.7709L63.2351 27.993H36.5219L41.3157 15.7709Z" fill="white"/>
</g>
<defs>
<linearGradient id="paint0_linear_2_6" x1="9" y1="3" x2="102" y2="78" gradientUnits="userSpaceOnUse">
<stop stop-color="#0040E3"/>
<stop offset="0.651042" stop-color="#620CC4"/>
<stop offset="1" stop-color="#6C00C0"/>
</linearGradient>
<clipPath id="clip0_2_6">
<rect width="102.375" height="78" fill="white"/>
</clipPath>
</defs>
</svg>
